<svg xmlns="http://www.w3.org/2000/svg" viewBox="0 0 640 512"><!--! Font Awesome Pro 6.1.0 by @fontawesome - https://fontawesome.com License - https://fontawesome.com/license (Commercial License) Copyright 2022 Fonticons, Inc. --><path d="M95.1 64C95.1 28.65 124.7 0 159.1 0C195.3 0 223.1 28.65 223.1 64C223.1 99.35 195.3 128 159.1 128C124.7 128 95.1 99.35 95.1 64zM159.1 80C168.8 80 175.1 72.84 175.1 64C175.1 55.16 168.8 48 159.1 48C151.2 48 143.1 55.16 143.1 64C143.1 72.84 151.2 80 159.1 80zM248.2 203.8L307.1 281.5C315.1 292.1 313.1 307.1 302.5 315.1C291.9 323.1 276.9 321.1 268.9 310.5L223.5 250.7L262.8 368.4C265.2 375.7 263.1 383.8 259.5 390C254.1 396.3 247.7 400 240 400H224V488C224 501.3 213.3 512 200 512C186.8 512 176 501.3 176 488V400H144V488C144 501.3 133.3 512 120 512C106.8 512 96.01 501.3 96.01 488V400H80C72.29 400 65.04 396.3 60.53 390C56.02 383.8 54.79 375.7 57.23 368.4L96.47 250.7L51.13 310.5C43.12 321.1 28.07 323.1 17.5 315.1C6.943 307.1 4.873 292.1 12.88 281.5L71.78 203.8C92.71 176.2 125.4 160 160 160C194.7 160 227.3 176.2 248.2 203.8L248.2 203.8zM206.7 352L160 211.9L113.3 352H206.7zM544 64C544 99.35 515.3 128 480 128C444.7 128 416 99.35 416 64C416 28.65 444.7 0 480 0C515.3 0 544 28.65 544 64zM480 48C471.2 48 464 55.16 464 64C464 72.84 471.2 80 480 80C488.8 80 496 72.84 496 64C496 55.16 488.8 48 480 48zM440 512C426.7 512 416 501.3 416 488V264.8L388.3 308.8C381.3 320 366.4 323.4 355.2 316.3C344 309.3 340.6 294.4 347.7 283.2L396.1 206.3C414.2 177.5 445.9 160 480 160C514.1 160 545.8 177.5 563.9 206.3L612.3 283.2C619.4 294.4 616 309.3 604.8 316.3C593.6 323.4 578.8 320 571.7 308.8L544 264.8V488C544 501.3 533.3 512 520 512C506.7 512 496 501.3 496 488V384H464V488C464 501.3 453.3 512 440 512H440zM480 208C474.5 208 469.1 208.9 464 210.6V336H496V210.6C490.9 208.9 485.5 208 480 208z"/></svg>