<svg xmlns="http://www.w3.org/2000/svg" viewBox="0 0 640 512"><!--! Font Awesome Pro 6.1.0 by @fontawesome - https://fontawesome.com License - https://fontawesome.com/license (Commercial License) Copyright 2022 Fonticons, Inc. --><path d="M224 64C224 99.35 195.3 128 160 128C124.7 128 96 99.35 96 64C96 28.65 124.7 0 160 0C195.3 0 224 28.65 224 64zM160 16C133.5 16 112 37.49 112 64C112 90.51 133.5 112 160 112C186.5 112 208 90.51 208 64C208 37.49 186.5 16 160 16zM52.61 384H267.4L208.8 259.4C206.9 255.4 208.6 250.6 212.6 248.8C216.6 246.9 221.4 248.6 223.2 252.6L287.2 388.6C288.4 391.1 288.2 393.1 286.8 396.3C285.3 398.6 282.7 400 280 400H239.1V476C239.1 495.9 223.9 512 203.1 512C184.1 512 168 495.9 168 476V400H151.1V476C151.1 495.9 135.9 512 115.1 512C96.12 512 80 495.9 80 476V400H40C37.26 400 34.71 398.6 33.25 396.3C31.78 393.1 31.6 391.1 32.76 388.6L96.76 252.6C98.64 248.6 103.4 246.9 107.4 248.8C111.4 250.6 113.1 255.4 111.2 259.4L52.61 384zM115.1 496C127 496 135.1 487 135.1 476V400H96V476C96 487 104.1 496 115.1 496V496zM184 400V476C184 487 192.1 496 203.1 496C215 496 223.1 487 223.1 476V400H184zM159.2 176C130.9 176 104.7 190.1 90.28 215.4L30.89 316.1C28.65 319.9 23.74 321.1 19.94 318.9C16.13 316.6 14.87 311.7 17.11 307.9L76.5 207.2C93.76 177.1 125.2 160 159.2 160H160.8C194.8 160 226.2 177.1 243.5 207.2L302.9 307.9C305.1 311.7 303.9 316.6 300.1 318.9C296.3 321.1 291.4 319.9 289.1 316.1L229.7 215.4C215.3 190.1 189.1 176 160.8 176H159.2zM544 64C544 99.35 515.3 128 480 128C444.7 128 416 99.35 416 64C416 28.65 444.7 0 480 0C515.3 0 544 28.65 544 64zM480 16C453.5 16 432 37.49 432 64C432 90.51 453.5 112 480 112C506.5 112 528 90.51 528 64C528 37.49 506.5 16 480 16zM351.1 315.8C348.1 319.7 344.1 321.1 340.2 319.1C336.3 316.1 334.9 312.1 336.9 308.2L386.7 214.1C404.8 181.1 440.1 160 478.5 160H481.5C519.9 160 555.2 181.1 573.3 214.1L623.1 308.2C625.1 312.1 623.7 316.1 619.8 319.1C615.9 321.1 611 319.7 608.9 315.8L559.1 222.5C543.8 193.9 514 175.1 481.5 175.1H478.5C446 175.1 416.2 193.9 400.9 222.5L351.1 315.8zM408 280C412.4 280 416 283.6 416 288V476C416 487 424.1 496 436 496C447 496 455.1 487 455.1 476V392C455.1 378.7 466.7 368 480 368C493.3 368 504 378.7 504 392V476C504 487 512.1 496 524 496C535 496 543.1 487 543.1 476V288C543.1 283.6 547.6 280 551.1 280C556.4 280 559.1 283.6 559.1 288V476C559.1 495.9 543.9 512 524 512C504.1 512 488 495.9 488 476V392C488 387.6 484.4 384 480 384C475.6 384 471.1 387.6 471.1 392V476C471.1 495.9 455.9 512 436 512C416.1 512 400 495.9 400 476V288C400 283.6 403.6 280 408 280z"/></svg>